<?xml version="1.0" encoding="utf-8"?>
<!-- Generator: Adobe Illustrator 24.0.1, SVG Export Plug-In . SVG Version: 6.00 Build 0)  -->
<svg version="1.1" id="Layer_1" xmlns="http://www.w3.org/2000/svg" xmlns:xlink="http://www.w3.org/1999/xlink" x="0px" y="0px"
	 viewBox="0 0 129.2 20" style="enable-background:new 0 0 129.2 20;" xml:space="preserve">
<style type="text/css">
	.st0{fill:#FFFFFF;}
</style>
<path class="st0" d="M8.2,3.8c-0.4-0.7-1.1-1.1-1.8-1c-0.4,0-0.9,0.1-1.2,0.4C4.8,3.6,4.5,4,4.4,4.5C4.2,5.3,4,6,4,6.8
	c-0.1,1-0.1,2.1-0.1,3.5c0,1.2,0,2.4,0.1,3.6c0.1,0.7,0.2,1.5,0.5,2.1c0.1,0.4,0.4,0.8,0.8,1c0.3,0.2,0.7,0.3,1.1,0.2
	c0.3,0,0.7,0,1-0.2c0.3-0.1,0.6-0.4,0.8-0.7c0.3-0.5,0.4-1,0.5-1.5c0.1-0.8,0.2-1.7,0.2-2.5h3.9c0,1-0.1,2-0.2,3
	c-0.1,0.9-0.4,1.7-0.9,2.5c-0.5,0.7-1.1,1.3-1.9,1.6c-1,0.4-2.1,0.6-3.1,0.6c-1.2,0.1-2.4-0.2-3.5-0.7c-0.9-0.5-1.5-1.1-2-2
	c-0.5-1-0.8-2.1-0.9-3.2C0.1,12.7,0,11.4,0,10c0-1.3,0.1-2.7,0.2-4c0.1-1.1,0.4-2.2,0.9-3.2c0.4-0.9,1.1-1.6,2-2.1
	C4.2,0.2,5.4-0.1,6.6,0c1.1-0.1,2.3,0.2,3.3,0.7c0.7,0.4,1.4,1,1.8,1.7c0.4,0.7,0.7,1.5,0.8,2.2c0.1,0.7,0.2,1.5,0.1,2.3H8.7
	C8.7,5.9,8.6,4.8,8.2,3.8z"/>
<path class="st0" d="M23.5,0.4l5.1,19.3h-4.1l-0.9-4.1h-5.2l-0.9,4.1h-4.1l5.1-19.3H23.5z M23,12.4l-1.9-8.6h-0.1l-1.9,8.7L23,12.4z
	"/>
<path class="st0" d="M33.2,14.2c0,0.4,0,0.8,0.1,1.2c0.1,0.3,0.2,0.7,0.4,0.9c0.2,0.3,0.5,0.5,0.8,0.6c0.4,0.1,0.8,0.2,1.3,0.2
	c0.6,0,1.2-0.2,1.6-0.6c0.5-0.5,0.8-1.1,0.7-1.8c0-0.4-0.1-0.8-0.2-1.1c-0.1-0.3-0.3-0.6-0.6-0.9c-0.3-0.3-0.7-0.5-1.1-0.7
	c-0.5-0.2-1.1-0.5-1.6-0.6c-0.8-0.3-1.5-0.6-2.2-0.9c-0.6-0.3-1.1-0.7-1.6-1.2c-0.4-0.5-0.7-1-0.9-1.6c-0.2-0.7-0.3-1.4-0.3-2.1
	c-0.1-1.6,0.5-3.2,1.6-4.3c1.2-1,2.8-1.5,4.4-1.4c0.8,0,1.6,0.1,2.4,0.3c0.7,0.2,1.3,0.5,1.9,0.9c0.5,0.4,1,1,1.2,1.6
	c0.3,0.7,0.5,1.6,0.5,2.4v0.5h-3.7c0-0.7-0.1-1.5-0.5-2.1c-0.4-0.5-1-0.8-1.6-0.7c-0.4,0-0.7,0.1-1.1,0.2c-0.5,0.2-0.9,0.7-1,1.2
	c-0.1,0.3-0.1,0.6-0.1,0.8c0,0.5,0.1,1,0.4,1.5c0.4,0.5,1,0.9,1.6,1.1l3,1.3c0.6,0.3,1.2,0.6,1.8,1c0.4,0.3,0.8,0.7,1.1,1.1
	c0.3,0.4,0.5,0.9,0.6,1.3c0.1,0.5,0.2,1.1,0.2,1.6c0.1,1.7-0.5,3.3-1.8,4.5c-1.5,1-3.2,1.5-5,1.4c-2.2,0-3.8-0.5-4.7-1.4
	c-1-1.1-1.5-2.6-1.4-4.1v-0.8h3.9L33.2,14.2z"/>
<path class="st0" d="M44.3,0.4h3.9v19.3h-3.9V0.4z"/>
<path class="st0" d="M60.3,13.6L60.3,13.6l0.1-13.2h3.6v19.3h-4.5L54.7,6.2l0,0v13.5h-3.6V0.4h4.5L60.3,13.6z"/>
<path class="st0" d="M66.4,6c0.1-1.1,0.4-2.2,0.9-3.2c0.4-0.9,1.1-1.6,2-2.1c2.2-1,4.8-1,7,0c0.9,0.5,1.6,1.2,2,2.1
	c0.5,1,0.8,2.1,0.9,3.2c0.1,1.3,0.2,2.7,0.2,4c0,1.4-0.1,2.7-0.2,4.1c-0.1,1.1-0.4,2.2-0.9,3.2c-0.5,0.9-1.1,1.5-2,2
	c-2.2,0.9-4.8,0.9-7,0c-0.9-0.5-1.5-1.1-2-2c-0.5-1-0.8-2.1-0.9-3.2c-0.1-1.3-0.2-2.7-0.2-4.1C66.2,8.7,66.3,7.3,66.4,6z M70.2,13.4
	c0,0.7,0.2,1.5,0.4,2.2c0.1,0.5,0.4,0.9,0.8,1.2c0.9,0.5,1.9,0.5,2.8,0c0.4-0.3,0.7-0.8,0.8-1.2c0.2-0.7,0.3-1.5,0.4-2.2
	c0.1-0.9,0.1-2,0.1-3.3c0-1.1,0-2.2-0.1-3.3c0-0.8-0.2-1.5-0.4-2.2c-0.1-0.5-0.4-0.9-0.8-1.3c-0.9-0.5-1.9-0.5-2.8,0
	C71,3.6,70.7,4,70.6,4.5c-0.2,0.7-0.3,1.5-0.4,2.2c-0.1,0.9-0.1,2-0.1,3.3S70.2,12.5,70.2,13.4z"/>
<path class="st0" d="M93,3.6h-4.2v16.1h-3.9V3.6h-4.2V0.4H93V3.6z"/>
<path class="st0" d="M94.5,6c0.1-1.1,0.4-2.2,0.9-3.2c0.4-0.9,1.1-1.6,2-2.1c2.2-1,4.8-1,7,0c0.9,0.5,1.6,1.2,2,2.1
	c0.5,1,0.8,2.1,0.9,3.2c0.1,1.3,0.2,2.7,0.2,4c0,1.4-0.1,2.7-0.2,4.1c-0.1,1.1-0.4,2.2-0.9,3.2c-0.5,0.9-1.1,1.5-2,2
	c-2.2,0.9-4.8,0.9-7,0c-0.9-0.5-1.5-1.1-2-2c-0.5-1-0.8-2.1-0.9-3.2c-0.1-1.3-0.2-2.7-0.2-4.1C94.3,8.7,94.4,7.3,94.5,6z M98.3,13.4
	c0,0.7,0.2,1.5,0.4,2.2c0.1,0.5,0.4,0.9,0.8,1.2c0.9,0.5,1.9,0.5,2.8,0c0.4-0.3,0.7-0.8,0.8-1.2c0.2-0.7,0.3-1.5,0.4-2.2
	c0.1-0.9,0.1-2,0.1-3.3c0-1.1,0-2.2-0.1-3.3c0-0.8-0.2-1.5-0.4-2.2c-0.1-0.5-0.4-0.9-0.8-1.3c-0.9-0.5-1.9-0.5-2.8,0
	c-0.4,0.3-0.7,0.8-0.8,1.3c-0.2,0.7-0.3,1.5-0.4,2.2c-0.1,0.9-0.1,2-0.1,3.3S98.2,12.5,98.3,13.4z"/>
<path class="st0" d="M116.6,0.4c0.9,0,1.7,0.1,2.5,0.5c0.6,0.3,1.2,0.8,1.6,1.3c0.4,0.6,0.7,1.2,0.9,1.9c0.2,0.7,0.3,1.4,0.3,2.1
	c0,0.9-0.1,1.8-0.4,2.6c-0.3,0.7-0.7,1.3-1.2,1.8c-0.6,0.5-1.2,0.9-1.9,1.1c-0.8,0.2-1.7,0.4-2.5,0.4h-2.1v7.7h-3.9V0.4H116.6z
	 M115.4,9.1c0.7,0,1.4-0.2,1.9-0.7c0.5-0.6,0.8-1.4,0.7-2.2c0.1-0.8-0.1-1.6-0.6-2.2c-0.5-0.6-1.3-0.8-2.1-0.8h-1.6v5.9H115.4z"/>
<path class="st0" d="M127.5,5.8c-0.3,0.1-0.7,0.2-1,0.2c-0.3,0-0.7,0-1-0.2c-0.3-0.1-0.5-0.2-0.8-0.4c-0.2-0.2-0.4-0.4-0.5-0.6
	c-0.1-0.2-0.2-0.5-0.3-0.7c-0.1-0.5-0.1-1.1,0-1.6c0.1-0.3,0.2-0.5,0.3-0.8c0.1-0.2,0.3-0.5,0.5-0.6c0.2-0.2,0.5-0.3,0.8-0.4
	c0.3-0.1,0.7-0.2,1-0.2c0.3,0,0.7,0,1,0.2c0.3,0.1,0.5,0.2,0.8,0.4c0.2,0.2,0.4,0.4,0.5,0.6c0.1,0.2,0.2,0.5,0.3,0.8
	c0.1,0.5,0.1,1.1,0,1.6c-0.1,0.3-0.2,0.5-0.3,0.8c-0.1,0.2-0.3,0.5-0.5,0.6C128,5.6,127.8,5.7,127.5,5.8z M126.5,5.6
	c0.3,0,0.6,0,0.8-0.1c0.2-0.1,0.5-0.2,0.6-0.4c0.2-0.2,0.3-0.3,0.4-0.6c0.1-0.2,0.2-0.4,0.3-0.7c0.1-0.5,0.1-1,0-1.4
	c-0.1-0.2-0.1-0.5-0.3-0.7c-0.1-0.2-0.3-0.4-0.4-0.5c-0.2-0.2-0.4-0.3-0.6-0.4c-0.5-0.2-1.1-0.2-1.7,0c-0.2,0.1-0.5,0.2-0.6,0.4
	c-0.2,0.2-0.3,0.3-0.4,0.5c-0.1,0.2-0.2,0.4-0.3,0.7c-0.1,0.5-0.1,1,0,1.4c0.1,0.2,0.2,0.5,0.3,0.7c0.1,0.2,0.3,0.4,0.4,0.6
	c0.2,0.2,0.4,0.3,0.6,0.4C125.9,5.6,126.2,5.6,126.5,5.6z M125.3,4.8V1.5h1.1c0.2,0,0.3,0,0.5,0c0.1,0,0.3,0.1,0.4,0.1
	c0.1,0.1,0.2,0.2,0.3,0.3c0.1,0.1,0.1,0.3,0.1,0.4c0,0.2,0,0.4-0.1,0.5c-0.1,0.1-0.2,0.3-0.4,0.3l0.6,1.6h-1l-0.4-1.4h-0.1v1.5
	L125.3,4.8z M126.3,2.9h0.1c0.3,0,0.4-0.2,0.4-0.5S126.7,2,126.4,2h-0.2L126.3,2.9z"/>
</svg>
